<?xml version="1.0" encoding="UTF-8" standalone="no"?><!DOCTYPE svg PUBLIC "-//W3C//DTD SVG 1.1//EN" "http://www.w3.org/Graphics/SVG/1.1/DTD/svg11.dtd"><svg width="32px" height="32px" viewBox="0 0 32 32" version="1.1" xmlns="http://www.w3.org/2000/svg" xmlns:xlink="http://www.w3.org/1999/xlink" xml:space="preserve" xmlns:serif="http://www.serif.com/" style="fill-rule:evenodd;clip-rule:evenodd;stroke-linejoin:round;stroke-miterlimit:2;"><path d="M30.075,16c-0.051,-2.525 -0.925,-5.592 -1.656,-7.452c1.691,0.199 3.246,-1.42 2.564,-3.692c-2.249,-1.118 -3.592,-0.507 -4.219,2.036c-2.484,-0.828 -6.919,-1.692 -10.786,-1.69l0.022,0c-3.867,-0.002 -8.28,0.862 -10.764,1.69c-0.627,-2.543 -1.97,-3.154 -4.219,-2.036c-0.682,2.272 0.873,3.891 2.564,3.692c-0.731,1.86 -1.605,4.927 -1.656,7.452c0.051,2.525 0.925,5.592 1.656,7.452c-1.691,-0.199 -3.246,1.42 -2.564,3.692c2.249,1.118 3.592,0.507 4.219,-2.036c2.484,0.828 6.897,1.692 10.764,1.69l-0.022,0c3.867,0.002 8.302,-0.862 10.786,-1.69c0.627,2.543 1.97,3.154 4.219,2.036c0.682,-2.272 -0.873,-3.891 -2.564,-3.692c0.731,-1.86 1.605,-4.927 1.656,-7.452" style="fill:#e18248;"/><circle cx="23.452" cy="20.968" r="2.484" style="fill:#43dcf7;"/></svg>