<?xml version="1.0" encoding="UTF-8" standalone="no"?><!DOCTYPE svg PUBLIC "-//W3C//DTD SVG 1.1//EN" "http://www.w3.org/Graphics/SVG/1.1/DTD/svg11.dtd"><svg width="32px" height="32px" viewBox="0 0 32 32" version="1.1" xmlns="http://www.w3.org/2000/svg" xmlns:xlink="http://www.w3.org/1999/xlink" xml:space="preserve" xmlns:serif="http://www.serif.com/" style="fill-rule:evenodd;clip-rule:evenodd;stroke-linejoin:round;stroke-miterlimit:2;"><path d="M16.207,0.001l0.206,0.004l0.205,0.007l0.205,0.009l0.204,0.011l0.203,0.015l0.203,0.016l0.202,0.02l0.201,0.021l0.201,0.025l0.199,0.026l0.199,0.029l0.198,0.032l0.198,0.034l0.196,0.037l0.196,0.038l0.195,0.041l0.194,0.044l0.193,0.046l0.192,0.048l0.191,0.051l0.19,0.052l0.189,0.055l0.189,0.058l0.187,0.059l0.186,0.062l0.186,0.064l0.184,0.067l0.183,0.068l0.182,0.071l0.181,0.072l0.18,0.075l0.179,0.077l0.178,0.079l0.177,0.082l0.175,0.083l0.174,0.085l0.173,0.087l0.172,0.09l0.171,0.091l0.169,0.094l0.168,0.095l0.167,0.097l0.166,0.1l0.164,0.101l0.163,0.103l0.162,0.105l0.16,0.107l0.159,0.109l0.158,0.111l0.156,0.112l0.155,0.114l0.153,0.116l0.152,0.118l0.15,0.12l0.149,0.122l0.147,0.123l0.146,0.125l0.145,0.126l0.143,0.129l0.141,0.13l0.14,0.131l0.138,0.134l0.136,0.135l0.135,0.136l0.134,0.138l0.131,0.14l0.13,0.141l0.129,0.143l0.126,0.145l0.125,0.146l0.123,0.147l0.122,0.149l0.12,0.15l0.118,0.152l0.116,0.153l0.114,0.155l0.112,0.156l0.111,0.158l0.109,0.159l0.107,0.16l0.105,0.162l0.103,0.163l0.101,0.164l0.1,0.166l0.097,0.167l0.095,0.168l0.094,0.169l0.091,0.171l0.09,0.172l0.087,0.173l0.085,0.174l0.083,0.175l0.082,0.177l0.079,0.178l0.077,0.179l0.075,0.18l0.072,0.181l0.071,0.182l0.068,0.183l0.067,0.184l0.064,0.186l0.062,0.186l0.059,0.187l0.058,0.189l0.055,0.189l0.052,0.19l0.051,0.191l0.048,0.192l0.046,0.193l0.044,0.194l0.041,0.195l0.038,0.196l0.037,0.196l0.034,0.198l0.032,0.198l0.029,0.199l0.026,0.199l0.025,0.201l0.021,0.201l0.02,0.202l0.016,0.203l0.015,0.203l0.011,0.204l0.009,0.205l0.007,0.205l0.004,0.206l0.001,0.207l-0.001,0.207l-0.004,0.206l-0.007,0.205l-0.009,0.205l-0.011,0.204l-0.015,0.203l-0.016,0.203l-0.02,0.202l-0.021,0.201l-0.025,0.201l-0.026,0.199l-0.029,0.199l-0.032,0.198l-0.034,0.198l-0.037,0.196l-0.038,0.196l-0.041,0.195l-0.044,0.194l-0.046,0.193l-0.048,0.192l-0.051,0.191l-0.052,0.19l-0.055,0.189l-0.058,0.189l-0.059,0.187l-0.062,0.186l-0.064,0.186l-0.067,0.184l-0.068,0.183l-0.071,0.182l-0.072,0.181l-0.075,0.18l-0.077,0.179l-0.079,0.178l-0.082,0.177l-0.083,0.175l-0.085,0.174l-0.087,0.173l-0.09,0.172l-0.091,0.171l-0.094,0.169l-0.095,0.168l-0.097,0.167l-0.1,0.166l-0.101,0.164l-0.103,0.163l-0.105,0.162l-0.107,0.16l-0.109,0.159l-0.111,0.158l-0.112,0.156l-0.114,0.155l-0.116,0.153l-0.118,0.152l-0.12,0.15l-0.122,0.149l-0.123,0.147l-0.125,0.146l-0.126,0.145l-0.129,0.143l-0.13,0.141l-0.131,0.14l-0.134,0.138l-0.135,0.136l-0.136,0.135l-0.138,0.134l-0.14,0.131l-0.141,0.13l-0.143,0.129l-0.145,0.126l-0.146,0.125l-0.147,0.123l-0.149,0.122l-0.15,0.12l-0.152,0.118l-0.153,0.116l-0.155,0.114l-0.156,0.112l-0.158,0.111l-0.159,0.109l-0.16,0.107l-0.162,0.105l-0.163,0.103l-0.164,0.101l-0.166,0.1l-0.167,0.097l-0.168,0.095l-0.169,0.094l-0.171,0.091l-0.172,0.09l-0.173,0.087l-0.174,0.085l-0.175,0.083l-0.177,0.082l-0.178,0.079l-0.179,0.077l-0.18,0.075l-0.181,0.072l-0.182,0.071l-0.183,0.068l-0.184,0.067l-0.186,0.064l-0.186,0.062l-0.187,0.059l-0.189,0.058l-0.189,0.055l-0.19,0.052l-0.191,0.051l-0.192,0.048l-0.193,0.046l-0.194,0.044l-0.195,0.041l-0.196,0.038l-0.196,0.037l-0.198,0.034l-0.198,0.032l-0.199,0.029l-0.199,0.026l-0.201,0.025l-0.201,0.021l-0.202,0.02l-0.203,0.016l-0.203,0.015l-0.204,0.011l-0.205,0.009l-0.205,0.007l-0.206,0.004l-0.207,0.001l-0.207,-0.001l-0.206,-0.004l-0.205,-0.007l-0.205,-0.009l-0.204,-0.011l-0.203,-0.015l-0.203,-0.016l-0.202,-0.02l-0.201,-0.021l-0.201,-0.025l-0.199,-0.026l-0.199,-0.029l-0.198,-0.032l-0.198,-0.034l-0.196,-0.037l-0.196,-0.038l-0.195,-0.041l-0.194,-0.044l-0.193,-0.046l-0.192,-0.048l-0.191,-0.051l-0.19,-0.052l-0.189,-0.055l-0.189,-0.058l-0.187,-0.059l-0.186,-0.062l-0.186,-0.064l-0.184,-0.067l-0.183,-0.068l-0.182,-0.071l-0.181,-0.072l-0.18,-0.075l-0.179,-0.077l-0.178,-0.079l-0.177,-0.082l-0.175,-0.083l-0.174,-0.085l-0.173,-0.087l-0.172,-0.09l-0.171,-0.091l-0.169,-0.094l-0.168,-0.095l-0.167,-0.097l-0.166,-0.1l-0.164,-0.101l-0.163,-0.103l-0.162,-0.105l-0.16,-0.107l-0.159,-0.109l-0.158,-0.111l-0.156,-0.112l-0.155,-0.114l-0.153,-0.116l-0.152,-0.118l-0.15,-0.12l-0.149,-0.122l-0.147,-0.123l-0.146,-0.125l-0.145,-0.126l-0.143,-0.129l-0.141,-0.13l-0.14,-0.131l-0.138,-0.134l-0.136,-0.135l-0.135,-0.136l-0.134,-0.138l-0.131,-0.14l-0.13,-0.141l-0.129,-0.143l-0.126,-0.145l-0.125,-0.146l-0.123,-0.147l-0.122,-0.149l-0.12,-0.15l-0.118,-0.152l-0.116,-0.153l-0.114,-0.155l-0.112,-0.156l-0.111,-0.158l-0.109,-0.159l-0.107,-0.16l-0.105,-0.162l-0.103,-0.163l-0.101,-0.164l-0.1,-0.166l-0.097,-0.167l-0.095,-0.168l-0.094,-0.169l-0.091,-0.171l-0.09,-0.172l-0.087,-0.173l-0.085,-0.174l-0.083,-0.175l-0.082,-0.177l-0.079,-0.178l-0.077,-0.179l-0.075,-0.18l-0.072,-0.181l-0.071,-0.182l-0.068,-0.183l-0.067,-0.184l-0.064,-0.186l-0.062,-0.186l-0.059,-0.187l-0.058,-0.189l-0.055,-0.189l-0.052,-0.19l-0.051,-0.191l-0.048,-0.192l-0.046,-0.193l-0.044,-0.194l-0.041,-0.195l-0.038,-0.196l-0.037,-0.196l-0.034,-0.198l-0.032,-0.198l-0.029,-0.199l-0.026,-0.199l-0.025,-0.201l-0.021,-0.201l-0.02,-0.202l-0.016,-0.203l-0.015,-0.203l-0.011,-0.204l-0.009,-0.205l-0.007,-0.205l-0.004,-0.206l-0.001,-0.207l0.001,-0.207l0.004,-0.206l0.007,-0.205l0.009,-0.205l0.011,-0.204l0.015,-0.203l0.016,-0.203l0.02,-0.202l0.021,-0.201l0.025,-0.201l0.026,-0.199l0.029,-0.199l0.032,-0.198l0.034,-0.198l0.037,-0.196l0.038,-0.196l0.041,-0.195l0.044,-0.194l0.046,-0.193l0.048,-0.192l0.051,-0.191l0.052,-0.19l0.055,-0.189l0.058,-0.189l0.059,-0.187l0.062,-0.186l0.064,-0.186l0.067,-0.184l0.068,-0.183l0.071,-0.182l0.072,-0.181l0.075,-0.18l0.077,-0.179l0.079,-0.178l0.082,-0.177l0.083,-0.175l0.085,-0.174l0.087,-0.173l0.09,-0.172l0.091,-0.171l0.094,-0.169l0.095,-0.168l0.097,-0.167l0.1,-0.166l0.101,-0.164l0.103,-0.163l0.105,-0.162l0.107,-0.16l0.109,-0.159l0.111,-0.158l0.112,-0.156l0.114,-0.155l0.116,-0.153l0.118,-0.152l0.12,-0.15l0.122,-0.149l0.123,-0.147l0.125,-0.146l0.126,-0.145l0.129,-0.143l0.13,-0.141l0.131,-0.14l0.134,-0.138l0.135,-0.136l0.136,-0.135l0.138,-0.134l0.14,-0.131l0.141,-0.13l0.143,-0.129l0.145,-0.126l0.146,-0.125l0.147,-0.123l0.149,-0.122l0.15,-0.12l0.152,-0.118l0.153,-0.116l0.155,-0.114l0.156,-0.112l0.158,-0.111l0.159,-0.109l0.16,-0.107l0.162,-0.105l0.163,-0.103l0.164,-0.101l0.166,-0.1l0.167,-0.097l0.168,-0.095l0.169,-0.094l0.171,-0.091l0.172,-0.09l0.173,-0.087l0.174,-0.085l0.175,-0.083l0.177,-0.082l0.178,-0.079l0.179,-0.077l0.18,-0.075l0.181,-0.072l0.182,-0.071l0.183,-0.068l0.184,-0.067l0.186,-0.064l0.186,-0.062l0.187,-0.059l0.189,-0.058l0.189,-0.055l0.19,-0.052l0.191,-0.051l0.192,-0.048l0.193,-0.046l0.194,-0.044l0.195,-0.041l0.196,-0.038l0.196,-0.037l0.198,-0.034l0.198,-0.032l0.199,-0.029l0.199,-0.026l0.201,-0.025l0.201,-0.021l0.202,-0.02l0.203,-0.016l0.203,-0.015l0.204,-0.011l0.205,-0.009l0.205,-0.007l0.206,-0.004l0.207,-0.001l0.207,0.001Zm-0.389,1.929l-0.182,0.004l-0.181,0.006l-0.18,0.008l-0.18,0.01l-0.179,0.012l-0.178,0.015l-0.178,0.017l-0.177,0.019l-0.176,0.021l-0.176,0.024l-0.175,0.026l-0.174,0.027l-0.173,0.03l-0.173,0.032l-0.172,0.034l-0.171,0.036l-0.17,0.039l-0.17,0.04l-0.169,0.042l-0.167,0.045l-0.168,0.046l-0.166,0.049l-0.165,0.05l-0.165,0.052l-0.163,0.055l-0.163,0.056l-0.162,0.058l-0.161,0.06l-0.16,0.062l-0.159,0.064l-0.158,0.066l-0.158,0.068l-0.156,0.069l-0.155,0.071l-0.154,0.074l-0.153,0.075l-0.153,0.076l-0.151,0.079l-0.15,0.08l-0.149,0.082l-0.147,0.084l-0.147,0.086l-0.146,0.087l-0.144,0.089l-0.144,0.091l-0.142,0.092l-0.141,0.095l-0.14,0.095l-0.138,0.098l-0.138,0.099l-0.136,0.1l-0.135,0.102l-0.133,0.104l-0.133,0.106l-0.131,0.106l-0.13,0.109l-0.128,0.11l-0.127,0.111l-0.126,0.113l-0.124,0.115l-0.123,0.116l-0.122,0.117l-0.12,0.119l-0.119,0.12l-0.117,0.122l-0.116,0.123l-0.115,0.124l-0.113,0.126l-0.111,0.127l-0.11,0.128l-0.109,0.13l-0.106,0.131l-0.106,0.133l-0.104,0.133l-0.102,0.135l-0.1,0.136l-0.099,0.138l-0.098,0.138l-0.095,0.14l-0.095,0.141l-0.092,0.142l-0.091,0.144l-0.089,0.144l-0.087,0.146l-0.086,0.147l-0.084,0.147l-0.082,0.149l-0.08,0.15l-0.079,0.151l-0.076,0.153l-0.075,0.153l-0.074,0.154l-0.071,0.155l-0.069,0.156l-0.068,0.158l-0.066,0.158l-0.064,0.159l-0.062,0.16l-0.06,0.161l-0.058,0.162l-0.056,0.163l-0.055,0.163l-0.052,0.165l-0.05,0.165l-0.049,0.166l-0.046,0.168l-0.045,0.167l-0.042,0.169l-0.04,0.17l-0.039,0.17l-0.036,0.171l-0.034,0.172l-0.032,0.173l-0.03,0.173l-0.027,0.174l-0.026,0.175l-0.024,0.176l-0.021,0.176l-0.019,0.177l-0.017,0.178l-0.015,0.178l-0.012,0.179l-0.01,0.18l-0.008,0.18l-0.006,0.181l-0.004,0.182l-0.001,0.182l0.001,0.182l0.004,0.182l0.006,0.181l0.008,0.18l0.01,0.18l0.012,0.179l0.015,0.178l0.017,0.178l0.019,0.177l0.021,0.176l0.024,0.176l0.026,0.175l0.027,0.174l0.03,0.173l0.032,0.173l0.034,0.172l0.036,0.171l0.039,0.17l0.04,0.17l0.042,0.169l0.045,0.167l0.046,0.168l0.049,0.166l0.05,0.165l0.052,0.165l0.055,0.163l0.056,0.163l0.058,0.162l0.06,0.161l0.062,0.16l0.064,0.159l0.066,0.158l0.068,0.158l0.069,0.156l0.071,0.155l0.074,0.154l0.075,0.153l0.076,0.153l0.079,0.151l0.08,0.15l0.083,0.149l0.083,0.147l0.086,0.147l0.087,0.146l0.089,0.144l0.091,0.144l0.092,0.142l0.095,0.141l0.095,0.14l0.098,0.138l0.099,0.138l0.1,0.136l0.102,0.135l0.104,0.133l0.106,0.133l0.106,0.131l0.109,0.13l0.11,0.128l0.111,0.127l0.113,0.126l0.115,0.124l0.116,0.123l0.117,0.122l0.119,0.12l0.12,0.119l0.122,0.117l0.123,0.116l0.124,0.115l0.126,0.113l0.127,0.111l0.128,0.11l0.13,0.109l0.131,0.106l0.133,0.106l0.133,0.104l0.135,0.102l0.136,0.1l0.138,0.099l0.138,0.098l0.14,0.095l0.141,0.095l0.142,0.092l0.144,0.091l0.144,0.089l0.146,0.087l0.147,0.086l0.147,0.083l0.149,0.083l0.15,0.08l0.151,0.079l0.153,0.076l0.153,0.075l0.154,0.074l0.155,0.071l0.156,0.069l0.158,0.068l0.158,0.066l0.159,0.064l0.16,0.062l0.161,0.06l0.162,0.058l0.162,0.056l0.164,0.055l0.165,0.052l0.165,0.05l0.166,0.049l0.168,0.046l0.167,0.045l0.169,0.042l0.17,0.04l0.17,0.039l0.171,0.036l0.172,0.034l0.173,0.032l0.173,0.03l0.174,0.027l0.175,0.026l0.176,0.024l0.176,0.021l0.177,0.019l0.178,0.017l0.178,0.015l0.179,0.012l0.18,0.01l0.18,0.008l0.181,0.006l0.182,0.004l0.182,0.001l0.182,-0.001l0.182,-0.004l0.181,-0.006l0.18,-0.008l0.18,-0.01l0.179,-0.012l0.178,-0.015l0.178,-0.017l0.177,-0.019l0.176,-0.021l0.176,-0.024l0.175,-0.026l0.174,-0.027l0.173,-0.03l0.173,-0.032l0.172,-0.034l0.171,-0.036l0.17,-0.039l0.17,-0.04l0.169,-0.042l0.167,-0.045l0.168,-0.046l0.166,-0.049l0.165,-0.05l0.165,-0.052l0.164,-0.055l0.162,-0.056l0.162,-0.058l0.161,-0.06l0.16,-0.062l0.159,-0.064l0.158,-0.066l0.158,-0.068l0.156,-0.069l0.155,-0.071l0.154,-0.074l0.153,-0.075l0.153,-0.076l0.151,-0.079l0.15,-0.08l0.149,-0.083l0.147,-0.083l0.147,-0.086l0.146,-0.087l0.144,-0.089l0.144,-0.091l0.142,-0.092l0.141,-0.095l0.14,-0.095l0.138,-0.098l0.138,-0.099l0.136,-0.1l0.135,-0.102l0.133,-0.104l0.133,-0.106l0.131,-0.106l0.13,-0.109l0.128,-0.11l0.127,-0.111l0.126,-0.113l0.124,-0.115l0.123,-0.116l0.122,-0.117l0.12,-0.119l0.119,-0.12l0.117,-0.122l0.116,-0.123l0.115,-0.124l0.113,-0.126l0.111,-0.127l0.11,-0.128l0.109,-0.13l0.106,-0.131l0.106,-0.133l0.104,-0.133l0.102,-0.135l0.1,-0.136l0.099,-0.138l0.098,-0.138l0.095,-0.14l0.095,-0.141l0.092,-0.142l0.091,-0.144l0.089,-0.144l0.087,-0.146l0.086,-0.147l0.083,-0.147l0.083,-0.149l0.08,-0.15l0.079,-0.151l0.076,-0.153l0.075,-0.153l0.074,-0.154l0.071,-0.155l0.069,-0.156l0.068,-0.158l0.066,-0.158l0.064,-0.159l0.062,-0.16l0.06,-0.161l0.058,-0.162l0.056,-0.162l0.055,-0.164l0.052,-0.165l0.05,-0.165l0.049,-0.166l0.046,-0.168l0.045,-0.167l0.042,-0.169l0.04,-0.17l0.039,-0.17l0.036,-0.171l0.034,-0.172l0.032,-0.173l0.03,-0.173l0.027,-0.174l0.026,-0.175l0.024,-0.176l0.021,-0.176l0.019,-0.177l0.017,-0.178l0.015,-0.178l0.012,-0.179l0.01,-0.18l0.008,-0.18l0.006,-0.181l0.004,-0.182l0.001,-0.182l-0.001,-0.182l-0.004,-0.182l-0.006,-0.181l-0.008,-0.18l-0.01,-0.18l-0.012,-0.179l-0.015,-0.178l-0.017,-0.178l-0.019,-0.177l-0.021,-0.176l-0.024,-0.176l-0.026,-0.175l-0.027,-0.174l-0.03,-0.173l-0.032,-0.173l-0.034,-0.172l-0.036,-0.171l-0.039,-0.17l-0.04,-0.17l-0.042,-0.169l-0.045,-0.167l-0.046,-0.168l-0.049,-0.166l-0.05,-0.165l-0.052,-0.165l-0.055,-0.164l-0.056,-0.162l-0.058,-0.162l-0.06,-0.161l-0.062,-0.16l-0.064,-0.159l-0.066,-0.158l-0.068,-0.158l-0.069,-0.156l-0.071,-0.155l-0.074,-0.154l-0.075,-0.153l-0.076,-0.153l-0.079,-0.151l-0.08,-0.15l-0.083,-0.149l-0.083,-0.147l-0.086,-0.147l-0.087,-0.146l-0.089,-0.144l-0.091,-0.144l-0.092,-0.142l-0.095,-0.141l-0.095,-0.14l-0.098,-0.138l-0.099,-0.138l-0.1,-0.136l-0.102,-0.135l-0.104,-0.133l-0.106,-0.133l-0.106,-0.131l-0.109,-0.13l-0.11,-0.128l-0.111,-0.127l-0.113,-0.126l-0.115,-0.124l-0.116,-0.123l-0.117,-0.122l-0.119,-0.12l-0.12,-0.119l-0.122,-0.117l-0.123,-0.116l-0.124,-0.115l-0.126,-0.113l-0.127,-0.111l-0.128,-0.11l-0.13,-0.109l-0.131,-0.106l-0.133,-0.106l-0.133,-0.104l-0.135,-0.102l-0.136,-0.1l-0.138,-0.099l-0.138,-0.098l-0.14,-0.095l-0.141,-0.095l-0.142,-0.092l-0.144,-0.091l-0.144,-0.089l-0.146,-0.087l-0.147,-0.086l-0.147,-0.083l-0.149,-0.083l-0.15,-0.08l-0.151,-0.079l-0.153,-0.076l-0.153,-0.075l-0.154,-0.074l-0.155,-0.071l-0.156,-0.069l-0.158,-0.068l-0.158,-0.066l-0.159,-0.064l-0.16,-0.062l-0.161,-0.06l-0.162,-0.058l-0.163,-0.056l-0.163,-0.055l-0.165,-0.052l-0.165,-0.05l-0.166,-0.049l-0.168,-0.046l-0.167,-0.045l-0.169,-0.042l-0.17,-0.04l-0.17,-0.039l-0.171,-0.036l-0.172,-0.034l-0.173,-0.032l-0.173,-0.03l-0.174,-0.027l-0.175,-0.026l-0.176,-0.024l-0.176,-0.021l-0.177,-0.019l-0.178,-0.017l-0.178,-0.015l-0.179,-0.012l-0.18,-0.01l-0.18,-0.008l-0.181,-0.006l-0.182,-0.004l-0.182,-0.001l-0.182,0.001Z" style="fill:#43DCF7;"/><path d="M24.5,16c-0.031,-1.525 -0.559,-3.377 -1,-4.5c1.021,0.12 1.96,-0.858 1.548,-2.23c-1.358,-0.675 -2.169,-0.306 -2.548,1.23c-1.5,-0.5 -4.178,-1.022 -6.513,-1.021l0.013,0c-2.335,-0.001 -5,0.521 -6.5,1.021c-0.379,-1.536 -1.19,-1.905 -2.548,-1.23c-0.412,1.372 0.527,2.35 1.548,2.23c-0.441,1.123 -0.969,2.975 -1,4.5c0.031,1.525 0.559,3.377 1,4.5c-1.021,-0.12 -1.96,0.858 -1.548,2.23c1.358,0.675 2.169,0.306 2.548,-1.23c1.5,0.5 4.165,1.022 6.5,1.021l-0.013,0c2.335,0.001 5.013,-0.521 6.513,-1.021c0.379,1.536 1.19,1.905 2.548,1.23c0.412,-1.372 -0.527,-2.35 -1.548,-2.23c0.441,-1.123 0.969,-2.975 1,-4.5" style="fill:#02c6ff;"/><circle cx="20.5" cy="19" r="1.5" style="fill:#fff;"/></svg>